<mxfile host="app.diagrams.net" modified="2024-06-13T09:35:37.921Z" agent="Mozilla/5.0 (Windows NT 10.0; Win64; x64) AppleWebKit/537.36 (KHTML, like Gecko) Chrome/125.0.0.0 Safari/537.36" version="24.5.3" etag="MRrB98zdJlL5ozCMzdog" type="github">
  <diagram name="第 1 页" id="4K5MkzHW_FcQkUzamCRr">
    <mxGraphModel>
      <root>
        <mxCell id="0" />
        <mxCell id="1" parent="0" />
      </root>
    </mxGraphModel>
  </diagram>
</mxfile>
